<?xml version="1.0" encoding="UTF-8" standalone="no"?><!DOCTYPE svg PUBLIC "-//W3C//DTD SVG 1.1//EN" "http://www.w3.org/Graphics/SVG/1.1/DTD/svg11.dtd"><svg width="100%" height="100%" viewBox="0 0 302 105" version="1.1" xmlns="http://www.w3.org/2000/svg" xmlns:xlink="http://www.w3.org/1999/xlink" xml:space="preserve" xmlns:serif="http://www.serif.com/" style="fill-rule:evenodd;clip-rule:evenodd;stroke-linejoin:round;stroke-miterlimit:2;"><g><path d="M74.514,36.266l-10.569,-0.044l7.328,4.597l0.222,23.591c0.044,3.903 -0.911,6.874 -2.865,8.847c-1.954,1.973 -4.818,2.97 -8.592,2.97c-3.753,-0 -6.595,-1.062 -8.505,-3.144c-1.909,-2.081 -2.842,-5.225 -2.797,-9.367l0.155,-22.55l-0,-0.325l7.394,-4.619l-7.683,0.022l-5.173,0.022l0,0.043l0.022,7.633l0,0.108l0.045,14.354l-0.067,6.006c-0.089,5.291 1.266,9.389 4.086,12.295c2.82,2.905 6.86,4.357 12.123,4.357c5.484,0 9.725,-1.517 12.701,-4.553c2.975,-3.057 4.418,-7.285 4.329,-12.728l0.067,-4.987l0.044,-14.657l-0,-0.195l0.023,-7.633l0,-0.043l-2.288,-0Z" style="fill:#fff;fill-rule:nonzero;"/><path d="M140.3,76.383l-0.54,-0c-0.122,-0.003 -0.249,-0.005 -0.449,-0l-12.889,-0l-0.209,-9.289l0.286,-25.152l6.873,-5.645l-6.809,0.004l0,-0.006l-5.727,-0l0.349,31.288l-0.349,13.479l22.069,0l-0,-0.002l4.423,0.001l0.085,0.001l0.062,-15.859l-7.175,11.18Z" style="fill:#fff;fill-rule:nonzero;"/><path d="M91.058,64.121l8.104,-22.071l0.489,-0l7.261,22.071l1.555,4.729l2.286,7.017l-8.104,5.195l15.099,-0.044l-2.643,-7.882l-12.3,-36.881l-6.506,-0l-13.501,36.836l-2.908,7.927l15.098,0.044l-8.215,-5.262l2.553,-6.95l1.732,-4.729Z" style="fill:#fff;fill-rule:nonzero;"/><path d="M8.283,80.433c-0.002,-1.356 -0.004,-2.774 -0.007,-4.228c-0.665,-0.025 -1.323,-0.048 -2.011,-0.078l-6.095,-9.833l-0.17,14.49l0.078,0l8.206,0.126l-0.001,-0.477Z" style="fill:#fff;fill-rule:nonzero;"/><path d="M6.265,40.88c0.303,-0.026 0.629,-0.05 0.955,-0.074l-0,-4.857c-2.528,0.069 -4.933,0.156 -7.142,0.273l-0.078,0l0.391,13.417l5.874,-8.759Z" style="fill:#fff;fill-rule:nonzero;"/><path d="M34.149,42.062c-2.833,-2.864 -6.535,-4.72 -11.067,-5.618l0,3.5l-1.032,0.998c3.107,0.666 5.648,2.035 7.595,4.144c2.846,3.081 4.269,7.682 4.269,13.8c0,10.162 -4.097,15.898 -12.281,17.218l-0,4.784c5.477,-0.507 9.818,-2.244 12.986,-5.248c3.812,-3.616 5.718,-8.806 5.718,-15.573c0,-7.832 -2.064,-13.834 -6.188,-18.005Z" style="fill:#fff;fill-rule:nonzero;"/><path d="M173.71,102.92c0,0.257 -0.047,0.497 -0.138,0.717c-0.092,0.22 -0.219,0.411 -0.379,0.571c-0.161,0.162 -0.352,0.287 -0.571,0.379c-0.222,0.093 -0.46,0.138 -0.717,0.138l-12.92,-0c-0.331,-0 -0.686,-0.039 -1.066,-0.117c-0.382,-0.078 -0.757,-0.199 -1.131,-0.365c-0.371,-0.165 -0.727,-0.378 -1.067,-0.641c-0.339,-0.261 -0.641,-0.579 -0.902,-0.95c-0.262,-0.372 -0.47,-0.803 -0.626,-1.294c-0.156,-0.492 -0.234,-1.045 -0.234,-1.66l-0,-9.696c-0,-0.33 0.039,-0.685 0.117,-1.067c0.078,-0.382 0.199,-0.758 0.364,-1.129c0.166,-0.372 0.382,-0.729 0.648,-1.068c0.265,-0.34 0.585,-0.64 0.957,-0.903c0.372,-0.261 0.801,-0.47 1.287,-0.626c0.487,-0.156 1.039,-0.234 1.653,-0.234l14.559,0l0,3.58l-14.559,0c-0.468,0 -0.826,0.125 -1.074,0.374c-0.248,0.246 -0.372,0.613 -0.372,1.1l0,9.669c0,0.46 0.126,0.815 0.38,1.067c0.251,0.253 0.608,0.38 1.066,0.38l11.143,-0l0,-4.491l-9.532,0l-0,-3.607l11.309,-0c0.257,-0 0.495,0.047 0.717,0.143c0.219,0.097 0.41,0.228 0.571,0.393c0.16,0.166 0.287,0.357 0.379,0.572c0.091,0.216 0.138,0.448 0.138,0.694l0,8.071Z" style="fill:#d92538;fill-rule:nonzero;"/><path d="M189.12,96.296l12.59,-0l0,-7.741l-6.296,0c-0.109,0 -0.341,0.016 -0.694,0.049c-0.355,0.033 -0.764,0.113 -1.226,0.241c-0.464,0.129 -0.954,0.326 -1.468,0.593c-0.515,0.267 -0.987,0.632 -1.418,1.102c-0.431,0.468 -0.788,1.053 -1.068,1.755c-0.281,0.702 -0.42,1.554 -0.42,2.554l-0,1.447Zm16.17,8.429l-3.58,-0l0,-4.848l-12.59,-0l-0,4.848l-3.581,-0l0,-9.876c0,-1.441 0.249,-2.767 0.744,-3.978c0.496,-1.214 1.184,-2.254 2.067,-3.127c0.88,-0.872 1.923,-1.552 3.126,-2.038c1.203,-0.487 2.515,-0.731 3.938,-0.731l8.071,0c0.249,0 0.483,0.045 0.703,0.137c0.221,0.093 0.412,0.22 0.578,0.386c0.167,0.165 0.294,0.358 0.386,0.579c0.093,0.22 0.138,0.454 0.138,0.702l-0,17.946Z" style="fill:#d92538;fill-rule:nonzero;"/><path d="M240.107,104.725l-3.608,-0l-0,-11.762l-6.35,11.171c-0.156,0.283 -0.374,0.499 -0.655,0.646c-0.279,0.146 -0.581,0.22 -0.901,0.22c-0.312,-0 -0.604,-0.074 -0.875,-0.22c-0.271,-0.147 -0.484,-0.363 -0.64,-0.646l-6.378,-11.171l-0,11.762l-3.58,-0l-0,-18.221c-0,-0.414 0.121,-0.78 0.365,-1.102c0.242,-0.322 0.562,-0.538 0.957,-0.647c0.193,-0.047 0.386,-0.063 0.579,-0.049c0.192,0.014 0.377,0.055 0.558,0.125c0.178,0.068 0.341,0.164 0.488,0.288c0.146,0.125 0.271,0.275 0.372,0.447l8.154,14.173l8.154,-14.173c0.211,-0.347 0.503,-0.595 0.874,-0.743c0.372,-0.146 0.76,-0.17 1.164,-0.068c0.386,0.109 0.702,0.325 0.951,0.647c0.246,0.322 0.371,0.688 0.371,1.102l-0,18.221Z" style="fill:#d92538;fill-rule:nonzero;"/><path d="M268.257,96.654l-11.307,0l0,-3.607l11.307,-0l-0,3.607Zm1.612,8.071l-12.919,-0c-0.497,-0 -1.039,-0.086 -1.626,-0.261c-0.587,-0.174 -1.131,-0.462 -1.632,-0.862c-0.501,-0.398 -0.917,-0.918 -1.252,-1.556c-0.337,-0.638 -0.503,-1.421 -0.503,-2.348l-0,-12.919c-0,-0.248 0.045,-0.482 0.138,-0.702c0.092,-0.221 0.217,-0.414 0.377,-0.579c0.162,-0.166 0.353,-0.293 0.573,-0.386c0.22,-0.092 0.458,-0.137 0.716,-0.137l16.128,0l-0,3.58l-14.352,0l-0,11.143c-0,0.468 0.125,0.827 0.372,1.073c0.248,0.249 0.612,0.374 1.087,0.374l12.893,-0l-0,3.58Z" style="fill:#d92538;fill-rule:nonzero;"/><path d="M301.434,98.914c-0,0.706 -0.088,1.342 -0.266,1.906c-0.181,0.565 -0.417,1.064 -0.711,1.495c-0.293,0.431 -0.638,0.798 -1.032,1.102c-0.396,0.302 -0.805,0.55 -1.226,0.743c-0.423,0.193 -0.852,0.335 -1.289,0.427c-0.435,0.093 -0.846,0.138 -1.232,0.138l-13.813,-0l-0,-3.58l13.813,-0c0.688,-0 1.224,-0.203 1.606,-0.608c0.379,-0.402 0.57,-0.944 0.57,-1.623c0,-0.331 -0.051,-0.635 -0.152,-0.91c-0.1,-0.275 -0.246,-0.515 -0.433,-0.716c-0.189,-0.201 -0.419,-0.357 -0.69,-0.468c-0.27,-0.111 -0.57,-0.166 -0.901,-0.166l-8.236,0c-0.579,0 -1.203,-0.103 -1.874,-0.31c-0.669,-0.206 -1.291,-0.538 -1.866,-0.998c-0.573,-0.46 -1.051,-1.061 -1.431,-1.805c-0.382,-0.743 -0.573,-1.652 -0.573,-2.726c-0,-1.075 0.191,-1.981 0.573,-2.72c0.38,-0.739 0.858,-1.34 1.431,-1.804c0.575,-0.464 1.197,-0.799 1.866,-1.006c0.671,-0.207 1.295,-0.31 1.874,-0.31l12.188,0l0,3.58l-12.188,0c-0.679,0 -1.211,0.207 -1.591,0.62c-0.382,0.415 -0.572,0.961 -0.572,1.64c-0,0.688 0.19,1.232 0.572,1.632c0.38,0.399 0.912,0.6 1.591,0.6l8.263,-0c0.386,0.008 0.794,0.061 1.226,0.158c0.433,0.096 0.862,0.244 1.289,0.447c0.427,0.201 0.833,0.456 1.219,0.764c0.384,0.308 0.727,0.677 1.024,1.109c0.3,0.433 0.536,0.927 0.711,1.488c0.174,0.56 0.26,1.193 0.26,1.901Z" style="fill:#d92538;fill-rule:nonzero;"/><path d="M15.414,82.079l-0.029,-0.074l0,-46.954c0,-0.06 -0.008,-0.119 -0.026,-0.177c-0.007,-0.021 -0.019,-0.033 -0.026,-0.053c0.103,0.004 0.203,0.017 0.309,0.017c0.134,-0 0.26,-0.009 0.389,-0.014l0,47.593c0,0.042 0.004,0.085 0.013,0.127l2.723,12.594l-3.353,-13.059Zm-1.941,-53.185c-0.072,-0.813 0.151,-1.485 0.647,-1.946c0.432,-0.404 1.048,-0.627 1.732,-0.627c0.162,-0 0.326,0.012 0.479,0.034c0.48,0.083 0.902,0.391 1.222,0.898c0.393,0.607 0.54,1.348 0.386,1.93c-0.338,1.235 -1.391,1.675 -2.264,1.675c-0.063,0 -0.126,-0.002 -0.182,-0.006c-0.307,-0.025 -1.843,-0.237 -2.02,-1.958Zm13.752,-17.003c-0.074,-0.031 -0.152,-0.046 -0.23,-0.046c-0.156,0 -0.309,0.061 -0.424,0.175l-3.379,3.365c-0.11,0.111 -0.174,0.26 -0.176,0.417l-0.07,5.123l-2.908,2.815c-0.032,0.031 -0.054,0.069 -0.078,0.105c-0.447,-0.41 -0.974,-0.753 -1.58,-1.013c0.072,-0.1 0.123,-0.214 0.123,-0.34l0,-20.553c0.17,-0.391 0.072,-0.806 -0.106,-1.04c-0.362,-0.528 -1.011,-0.572 -1.591,-0.572c-0.324,0 -0.73,0.02 -1.235,0.049l-0.226,0.011c-0.282,0.014 -0.599,0.029 -0.825,0.029l-0.005,0c-0.065,0 -0.116,0 -0.073,0.018l-0.241,-0.088c-0.067,-0.024 -0.136,-0.037 -0.205,-0.037c-0.147,-0 -0.291,0.055 -0.404,0.156l-0.483,0.439c-0.125,0.114 -0.196,0.276 -0.196,0.445l0,21.121c0,0.146 0.061,0.281 0.156,0.389c-0.855,0.382 -1.595,0.959 -2.188,1.717c-0.042,-0.132 -0.126,-0.25 -0.25,-0.327c-0.098,-0.061 -0.208,-0.091 -0.318,-0.091c-0.148,-0 -0.296,0.055 -0.41,0.162l-3.774,3.54c-0.121,0.114 -0.189,0.272 -0.189,0.438l0,6.34c0,0.242 0.146,0.46 0.369,0.553c0.074,0.032 0.153,0.047 0.231,0.047c0.155,-0 0.307,-0.061 0.422,-0.174l3.335,-3.306c0.045,0.085 0.079,0.176 0.128,0.259c0.14,0.238 0.295,0.461 0.461,0.671c-0.087,0.015 -0.173,0.043 -0.247,0.096c-0.158,0.112 -0.252,0.294 -0.252,0.488l0,3.494l-1.55,-1.24c-0.108,-0.087 -0.241,-0.132 -0.375,-0.132c-0.088,-0 -0.176,0.02 -0.259,0.059c-0.208,0.101 -0.34,0.311 -0.34,0.542l-0,3.908c-0,0.181 0.081,0.352 0.222,0.466l0.269,0.218c-0.055,0.01 -0.108,0.027 -0.159,0.053c-0.204,0.101 -0.332,0.309 -0.332,0.537l-0,3.556c-0,0.177 0.077,0.345 0.213,0.459l2.308,1.947l-0.016,1.693l-1.126,1.145c-0.111,0.112 -0.172,0.264 -0.172,0.421l-0,0.156c-0.147,4.531 -0.133,11.891 -0.112,23.032l0.003,1.68l0.026,0.491c0.009,0.153 0.087,0.308 0.198,0.414c0.149,0.14 0.934,1.123 1.181,1.464l0.021,10.555c0,0.13 0.042,0.257 0.121,0.361l0.022,0.02l2.372,4.216c1.341,2.383 2.934,5.189 4.562,7.918l0.278,0.507l0.117,0.194c0.407,0.674 0.827,1.37 1.327,1.994l0.769,0.988c0.117,0.15 0.293,0.231 0.473,0.231c0.09,-0 0.18,-0.02 0.265,-0.061c0.255,-0.125 0.387,-0.413 0.316,-0.688l-0.866,-3.372c0.087,0.047 0.181,0.081 0.284,0.081c0.022,-0 0.043,-0.001 0.065,-0.003c0.305,-0.033 0.536,-0.29 0.536,-0.597l-0,-59.032l1.333,-1.295c0.116,-0.113 0.182,-0.268 0.182,-0.43l-0,-8.123c-0,-0.25 -0.155,-0.474 -0.389,-0.562c-0.068,-0.026 -0.14,-0.039 -0.211,-0.039c-0.101,0 -0.197,0.034 -0.286,0.083c0.177,-0.587 0.277,-1.193 0.293,-1.794c0.001,-0.028 -0.002,-0.056 -0.001,-0.085c0.047,0.012 0.094,0.022 0.142,0.022c0.158,-0 0.311,-0.062 0.424,-0.176l4.904,-4.904c0.113,-0.112 0.175,-0.265 0.175,-0.424l-0,-10.775c-0,-0.242 -0.145,-0.461 -0.369,-0.554Z" style="fill:#fff;fill-rule:nonzero;"/><path d="M9.56,75.233c-0.022,-11.966 -0.044,-19.917 0.11,-24.659l0,-0.176l1.295,-1.318l0.022,-2.217l-2.524,-2.13l0,-3.556l3.227,2.436l-0,-1.097l-3.227,-2.613l0,-3.908l2.524,2.02l0,-4.743l0.571,0.198c0.307,0.109 0.571,0.263 0.835,0.439c0.175,0.11 0.351,0.219 0.549,0.307c0.088,0.022 0.329,0.11 0.592,0.176c0.988,0.329 1.164,0.373 1.252,0.659l0,47.063l0.066,0.175l5.576,21.73l-0.768,-0.988c-0.527,-0.659 -0.966,-1.405 -1.405,-2.13l-0.264,-0.483c-1.559,-2.612 -3.096,-5.313 -4.566,-7.925c-0.791,-1.406 -1.581,-2.811 -2.372,-4.216l-0.066,-0.088l-0.022,-10.73c-0.088,-0.176 -1.18,-1.558 -1.378,-1.734l-0.027,-0.492Z" style="fill:#d92538;fill-rule:nonzero;"/><path d="M21.943,31.099l0,8.123l-1.515,1.472l-0,59.285l-3.798,-17.562l-0,-47.696l0.373,-0.065c1.428,-0.198 2.745,-1.054 4.172,-2.679l0.768,-0.878Z" style="fill:#0a0b0b;fill-rule:nonzero;"/><path d="M17.903,1.239c-0.241,-0.352 -0.812,-0.352 -2.305,-0.264c-0.483,0.022 -1.207,0.066 -1.361,0.022l-0.242,-0.088l-0.483,0.439l0,21.122l0.483,-0.044c0.878,-0.11 2.174,-0.22 3.403,-0.022l0.505,0.088l-0,-20.705c0.154,-0.219 0.067,-0.461 -0,-0.548Z" style="fill:#0a0b0b;fill-rule:nonzero;"/><path d="M18.518,29.342c-0.439,1.603 -1.866,2.196 -3.074,2.108c-1.075,-0.088 -2.393,-0.79 -2.568,-2.503c-0.088,-0.988 0.197,-1.844 0.834,-2.437c0.681,-0.637 1.668,-0.9 2.722,-0.746c0.637,0.109 1.208,0.504 1.625,1.163c0.483,0.746 0.659,1.668 0.461,2.415Zm-1.866,-6.367c-2.393,-0.307 -4.369,0.527 -5.555,2.306c-1.23,1.865 -1.295,4.523 -0.154,6.432c0.966,1.647 2.635,2.525 4.699,2.525c0.197,-0 0.395,-0 0.593,-0.022c3.447,-0.263 5.049,-2.942 5.115,-5.445c0.066,-2.503 -1.383,-5.357 -4.698,-5.796Z" style="fill:#d92538;fill-rule:nonzero;"/><path d="M23.616,15.81l-0.073,5.372l-3.088,2.989l0.154,0.293c0.125,0.231 0.256,0.459 0.386,0.686c0.41,0.712 0.796,1.385 0.942,2.157l0.154,0.817l4.904,-4.904l0,-10.775l-3.379,3.365Z" style="fill:#0a0b0b;fill-rule:nonzero;"/><path d="M9.88,30.963c-0.536,-1.467 -0.557,-3.02 -0.06,-4.615l0.493,-1.59l-3.773,3.54l-0,6.34l3.439,-3.41l-0.099,-0.265Z" style="fill:#0a0b0b;fill-rule:nonzero;"/><path d="M228.474,36.418l-10.569,-0.043l7.328,4.597l0.221,23.59c0.045,3.904 -0.91,6.874 -2.864,8.847c-1.954,1.973 -4.818,2.971 -8.593,2.971c-3.752,-0 -6.594,-1.063 -8.504,-3.144c-1.909,-2.082 -2.842,-5.226 -2.798,-9.368l0.156,-22.55l-0,-0.325l7.394,-4.618l-7.683,0.021l-5.173,0.022l0,0.043l0.022,7.633l-0,0.108l0.044,14.354l-0.066,6.006c-0.089,5.292 1.266,9.389 4.086,12.295c2.819,2.905 6.86,4.358 12.123,4.358c5.484,0 9.725,-1.518 12.7,-4.553c2.976,-3.057 4.419,-7.286 4.33,-12.728l0.067,-4.988l0.044,-14.657l-0,-0.195l0.022,-7.633l0,-0.043l-2.287,-0Z" style="fill:#fff;fill-rule:nonzero;"/><path d="M294.259,76.536l-0.54,-0c-0.122,-0.003 -0.248,-0.005 -0.448,-0l-12.89,-0l-0.208,-9.29l0.285,-25.152l6.873,-5.644l-6.809,0.004l0,-0.007l-5.727,-0l0.349,31.288l-0.349,13.48l22.07,0l-0,-0.003l4.422,0.002l0.086,0.001l0.061,-15.86l-7.175,11.181Z" style="fill:#fff;fill-rule:nonzero;"/><path d="M257.789,76.507l-0.001,-0l-3.778,0.098l-8.871,-0.069l-0.208,-9.29l0.042,-4.057l10.997,-7.056l-10.903,0.043l0.003,-0.242l0.141,-14.667l8.868,-0.141l3.851,0.077c0.11,0.003 0.201,0.005 0.279,0.006l0.672,0.013l0.008,0l7.114,11.086l-0.062,-15.86l-0.085,0.001l-1.09,0.001l-0.001,-0.002l-25.211,-0l0.349,31.288l-0.349,13.479l25.142,0l0,-0.002l1.16,0.001l0.085,0.001l0.062,-15.86l-7.051,11.123l-1.163,0.029Z" style="fill:#fff;fill-rule:nonzero;"/><path d="M194.296,56.905c0,-12.167 -7.251,-20.008 -18.703,-20.821l0,0.02c-5.205,-0.052 -16.665,-0.09 -21.634,0.253l0.391,13.417l5.875,-8.76c13.194,-1.114 28.135,-0.438 28.135,17.541c0,18.06 -14.642,18.344 -28.135,17.537l-5.875,-8.759l-0.391,13.586c4.875,0.192 16.506,0.097 21.634,0.084l0,0.02c13.013,-0.602 18.703,-11.062 18.703,-24.118Z" style="fill:#fff;fill-rule:nonzero;"/></g></svg>